<svg width="20" height="18" viewBox="0 0 20 18" fill="none" xmlns="http://www.w3.org/2000/svg">
<path d="M9.18269 17.1427C9.41936 17.3793 9.7375 17.5112 10.0712 17.5112C10.401 17.5112 10.7269 17.3754 10.9597 17.1427L17.9317 10.1727C18.9909 9.11376 19.5729 7.70579 19.5768 6.21248C19.5768 4.7153 18.9948 3.30732 17.9356 2.24843C16.8764 1.18954 15.4719 0.607733 13.9743 0.607733C12.5038 0.607733 11.1187 1.17015 10.0673 2.19413C9.01197 1.16627 7.62299 0.599976 6.14865 0.599976C4.65492 0.599976 3.25042 1.18178 2.19122 2.23679C1.13202 3.29568 0.550049 4.70366 0.550049 6.20085C0.550049 7.69415 1.1359 9.10213 2.1951 10.161L9.18269 17.1427Z" fill="#2A2A2A"/>
<mask id="mask0_818_433" style="mask-type:alpha" maskUnits="userSpaceOnUse" x="0" y="0" width="20" height="18">
<path d="M9.18269 17.1427C9.41936 17.3793 9.7375 17.5112 10.0712 17.5112C10.401 17.5112 10.7269 17.3754 10.9597 17.1427L17.9317 10.1727C18.9909 9.11376 19.5729 7.70579 19.5768 6.21248C19.5768 4.7153 18.9948 3.30732 17.9356 2.24843C16.8764 1.18954 15.4719 0.607733 13.9743 0.607733C12.5038 0.607733 11.1187 1.17015 10.0673 2.19413C9.01197 1.16627 7.62299 0.599976 6.14865 0.599976C4.65492 0.599976 3.25042 1.18178 2.19122 2.23679C1.13202 3.29568 0.550049 4.70366 0.550049 6.20085C0.550049 7.69415 1.1359 9.10213 2.1951 10.161L9.18269 17.1427Z" fill="white"/>
</mask>
<g mask="url(#mask0_818_433)">
<rect x="-1.99994" y="-3" width="24" height="24" fill="#FFCA58"/>
</g>
</svg>
